<?xml version="1.0" standalone="no"?>
<!DOCTYPE svg PUBLIC "-//W3C//DTD SVG 1.1//EN" "http://www.w3.org/Graphics/SVG/1.1/DTD/svg11.dtd">
<svg xmlns="http://www.w3.org/2000/svg" version="1.1" width="377px" height="122.3px" viewBox="0 -4 377 122.3" style="top:-4px">
  <desc>my website :)</desc>
  <defs/>
  <g id="Polygon337">
    <path d="M 2 18.9 C 2 19.3 1.8 19.6 1.4 19.6 C 1 19.6 0.7 19.3 0.7 18.9 C 0.7 18.5 1 18.2 1.4 18.2 C 1.8 18.2 2 18.5 2 18.9 Z M 0.7 22.6 C 0.7 22.2 1 21.9 1.4 21.9 C 1.8 21.9 2.1 22.2 2.1 22.6 C 2.1 23 1.8 23.3 1.4 23.3 C 1 23.3 0.7 23 0.7 22.6 Z M 3.5 14.6 C 5.3 15.8 6 17.7 6 19.9 C 6 22 5.3 23.9 3.5 25.2 C 3.5 25.2 3.3 24.9 3.3 24.9 C 4.5 23.9 5.2 21.9 5.2 19.9 C 5.2 17.8 4.5 15.9 3.3 14.9 C 3.3 14.9 3.5 14.6 3.5 14.6 Z " stroke="none" fill="#000"/>
  </g>
  <g id="Polygon336">
    <path d="M 7 8.7 C 7 8.7 7 8.41 7 8.4 C 7.7 8.3 7.8 8.3 7.8 7.4 C 7.8 7.4 7.8 5.4 7.8 5.4 C 7.8 4.6 7.5 4 6.8 4 C 6.3 4 5.9 4.3 5.4 4.7 C 5.5 4.8 5.5 4.9 5.5 5.2 C 5.5 5.2 5.5 7.5 5.5 7.5 C 5.5 8.3 5.6 8.3 6.2 8.4 C 6.24 8.41 6.2 8.7 6.2 8.7 L 3.7 8.7 C 3.7 8.7 3.67 8.41 3.7 8.4 C 4.4 8.3 4.5 8.3 4.5 7.5 C 4.5 7.5 4.5 5.4 4.5 5.4 C 4.5 4.5 4.2 4 3.5 4 C 3 4 2.5 4.4 2.2 4.7 C 2.2 4.7 2.2 7.5 2.2 7.5 C 2.2 8.3 2.3 8.3 2.9 8.4 C 2.86 8.41 2.9 8.7 2.9 8.7 L 0.3 8.7 C 0.3 8.7 0.32 8.41 0.3 8.4 C 1.1 8.3 1.2 8.3 1.2 7.5 C 1.2 7.5 1.2 5 1.2 5 C 1.2 4.2 1.2 4.2 0.5 4.1 C 0.5 4.1 0.5 3.8 0.5 3.8 C 1 3.7 1.6 3.5 2.2 3.3 C 2.2 3.3 2.2 4.3 2.2 4.3 C 2.4 4.1 2.7 3.9 3 3.7 C 3.3 3.5 3.6 3.3 4 3.3 C 4.6 3.3 5.1 3.7 5.4 4.3 C 5.7 4.1 6 3.8 6.3 3.6 C 6.6 3.5 6.9 3.3 7.2 3.3 C 8.2 3.3 8.8 4 8.8 5.2 C 8.8 5.2 8.8 7.5 8.8 7.5 C 8.8 8.3 8.9 8.3 9.6 8.4 C 9.55 8.41 9.6 8.7 9.6 8.7 L 7 8.7 Z M 15.3 3.8 C 14.7 3.9 14.5 4 14.2 4.7 C 13.9 5.3 13.5 6.3 12.7 8.3 C 11.9 10.2 11.7 10.9 11.5 11.5 C 11.4 11.7 11.3 11.8 11.1 11.8 C 10.8 11.8 10.4 11.5 10.4 11.2 C 10.4 11 10.5 10.9 10.7 10.8 C 11.1 10.6 11.3 10.3 11.6 9.7 C 11.8 9.3 11.9 9.1 12 8.9 C 12 8.7 12 8.6 12 8.4 C 11.5 7 11 5.5 10.6 4.7 C 10.3 4 10.2 3.9 9.6 3.8 C 9.56 3.78 9.6 3.5 9.6 3.5 L 12 3.5 C 12 3.5 12 3.78 12 3.8 C 11.4 3.9 11.4 4 11.5 4.4 C 11.5 4.4 12.6 7.5 12.6 7.5 C 13 6.6 13.5 5.2 13.7 4.5 C 13.9 4 13.8 3.9 13.1 3.8 C 13.12 3.78 13.1 3.5 13.1 3.5 L 15.3 3.5 C 15.3 3.5 15.29 3.78 15.3 3.8 Z M 26.1 3.8 C 25.5 3.9 25.4 4 25.2 4.7 C 24.8 5.6 24.3 7.2 23.7 8.9 C 23.7 8.9 23.4 8.9 23.4 8.9 C 22.9 7.6 22.4 6.4 21.9 5.1 C 21.5 6.3 21 7.5 20.5 8.9 C 20.5 8.9 20.2 8.9 20.2 8.9 C 19.7 7.4 19.3 6 18.8 4.6 C 18.6 3.9 18.5 3.9 17.9 3.8 C 17.89 3.78 17.9 3.5 17.9 3.5 L 20.4 3.5 C 20.4 3.5 20.38 3.78 20.4 3.8 C 19.7 3.9 19.6 4 19.8 4.5 C 20.1 5.4 20.4 6.4 20.7 7.3 C 20.7 7.3 20.7 7.3 20.7 7.3 C 21.1 6.2 21.6 4.9 22.1 3.5 C 22.1 3.5 22.4 3.5 22.4 3.5 C 22.8 4.8 23.3 6.1 23.8 7.3 C 23.8 7.3 23.8 7.3 23.8 7.3 C 24.1 6.5 24.4 5.5 24.7 4.6 C 24.8 4 24.7 3.9 24 3.8 C 23.96 3.78 24 3.5 24 3.5 L 26.1 3.5 C 26.1 3.5 26.14 3.78 26.1 3.8 Z M 30.6 7.7 C 29.9 8.7 29.1 8.9 28.7 8.9 C 27.2 8.9 26.4 7.7 26.4 6.3 C 26.4 5.5 26.7 4.8 27.1 4.2 C 27.6 3.7 28.3 3.3 28.9 3.3 C 29.9 3.3 30.7 4.2 30.7 5.2 C 30.7 5.4 30.6 5.5 30.4 5.5 C 30.2 5.6 28.7 5.7 27.3 5.7 C 27.3 7.4 28.2 8.1 29.1 8.1 C 29.6 8.1 30 7.9 30.5 7.5 C 30.5 7.5 30.6 7.7 30.6 7.7 Z M 27.4 5.3 C 28 5.3 28.7 5.2 29.4 5.2 C 29.6 5.2 29.7 5.1 29.7 5 C 29.7 4.4 29.3 3.8 28.6 3.8 C 28.1 3.8 27.5 4.3 27.4 5.3 Z M 33.8 3.5 C 34 3.4 34.1 3.3 34.3 3.3 C 35.5 3.3 36.6 4.4 36.6 5.9 C 36.6 7.6 35.2 8.9 33.6 8.9 C 33.1 8.9 32.5 8.7 31.8 8.4 C 31.8 8.4 31.8 1.8 31.8 1.8 C 31.8 1 31.8 0.9 31.1 0.9 C 31.1 0.9 31.1 0.6 31.1 0.6 C 31.6 0.5 32.4 0.3 32.8 0.2 C 32.79 0.18 32.8 3.9 32.8 3.9 C 32.8 3.9 33.77 3.46 33.8 3.5 Z M 32.8 7.3 C 32.8 7.5 32.8 7.6 32.9 7.7 C 32.9 8 33.3 8.4 33.9 8.4 C 34.9 8.4 35.6 7.6 35.6 6.2 C 35.6 4.8 34.7 4 33.7 4 C 33.4 4 33 4.1 32.8 4.2 C 32.8 4.2 32.8 7.3 32.8 7.3 Z M 40.6 4.9 C 40.4 4.2 39.9 3.7 39.4 3.7 C 38.9 3.7 38.6 4.1 38.6 4.5 C 38.6 5.1 39.1 5.4 39.6 5.6 C 40.5 6 41.1 6.4 41.1 7.2 C 41.1 8.3 40.1 8.9 39.1 8.9 C 38.5 8.9 38 8.6 37.8 8.5 C 37.7 8.3 37.6 7.5 37.6 7 C 37.6 7 37.9 7 37.9 7 C 38.1 7.8 38.6 8.5 39.3 8.5 C 39.8 8.5 40.2 8.1 40.2 7.6 C 40.2 7.1 39.9 6.8 39.3 6.5 C 38.5 6.2 37.8 5.8 37.8 4.9 C 37.8 4 38.5 3.3 39.6 3.3 C 40.1 3.3 40.4 3.4 40.6 3.5 C 40.7 3.8 40.9 4.5 40.9 4.8 C 40.9 4.8 40.6 4.9 40.6 4.9 Z M 42.5 1.7 C 42.5 1.3 42.8 1.1 43.1 1.1 C 43.4 1.1 43.7 1.3 43.7 1.7 C 43.7 2 43.4 2.3 43.1 2.3 C 42.8 2.3 42.5 2 42.5 1.7 Z M 41.9 8.7 C 41.9 8.7 41.86 8.41 41.9 8.4 C 42.6 8.3 42.7 8.3 42.7 7.5 C 42.7 7.5 42.7 5 42.7 5 C 42.7 4.2 42.7 4.2 41.9 4.1 C 41.9 4.1 41.9 3.8 41.9 3.8 C 42.6 3.7 43.1 3.5 43.6 3.3 C 43.6 3.3 43.6 7.5 43.6 7.5 C 43.6 8.3 43.7 8.3 44.5 8.4 C 44.49 8.41 44.5 8.7 44.5 8.7 L 41.9 8.7 Z M 47.3 8.7 C 47.1 8.8 46.9 8.9 46.8 8.9 C 46 8.9 45.6 8.4 45.6 7.4 C 45.62 7.44 45.6 3.9 45.6 3.9 L 44.8 3.9 L 44.7 3.8 L 45.1 3.5 L 45.6 3.5 L 45.6 2.6 L 46.4 1.8 L 46.6 1.8 L 46.6 3.5 C 46.6 3.5 47.93 3.48 47.9 3.5 C 48 3.6 48 3.9 47.9 3.9 C 47.85 3.95 46.6 3.9 46.6 3.9 C 46.6 3.9 46.57 7.03 46.6 7 C 46.6 8 47 8.2 47.3 8.2 C 47.6 8.2 47.8 8.1 48 8 C 48.01 7.98 48.1 8.3 48.1 8.3 C 48.1 8.3 47.3 8.71 47.3 8.7 Z M 52.9 7.7 C 52.1 8.7 51.3 8.9 50.9 8.9 C 49.4 8.9 48.6 7.7 48.6 6.3 C 48.6 5.5 48.9 4.8 49.4 4.2 C 49.9 3.7 50.5 3.3 51.1 3.3 C 52.1 3.3 52.9 4.2 52.9 5.2 C 52.9 5.4 52.9 5.5 52.7 5.5 C 52.5 5.6 51 5.7 49.5 5.7 C 49.5 7.4 50.5 8.1 51.3 8.1 C 51.8 8.1 52.2 7.9 52.7 7.5 C 52.7 7.5 52.9 7.7 52.9 7.7 Z M 49.6 5.3 C 50.3 5.3 50.9 5.2 51.6 5.2 C 51.8 5.2 51.9 5.1 51.9 5 C 51.9 4.4 51.5 3.8 50.8 3.8 C 50.3 3.8 49.8 4.3 49.6 5.3 Z " stroke="none" fill="#000"/>
  </g>
</svg>